<svg width="200" height="200" viewBox="0 0 200 200" xmlns="http://www.w3.org/2000/svg">
  <!-- Cat head -->
  <ellipse cx="100" cy="100" rx="60" ry="50" fill="#FFB6C1" stroke="#333" stroke-width="2"/>
  
  <!-- Cat ears -->
  <polygon points="60,70 50,40 80,60" fill="#FFB6C1" stroke="#333" stroke-width="2"/>
  <polygon points="140,70 150,40 120,60" fill="#FFB6C1" stroke="#333" stroke-width="2"/>
  
  <!-- Inner ears -->
  <polygon points="62,68 52,42 78,58" fill="#FF69B4"/>
  <polygon points="138,68 148,42 122,58" fill="#FF69B4"/>
  
  <!-- Cat eyes -->
  <ellipse cx="85" cy="90" rx="8" ry="12" fill="#333"/>
  <ellipse cx="115" cy="90" rx="8" ry="12" fill="#333"/>
  <ellipse cx="87" cy="88" rx="3" ry="5" fill="#FFF"/>
  <ellipse cx="117" cy="88" rx="3" ry="5" fill="#FFF"/>
  
  <!-- Cat nose -->
  <polygon points="100,105 95,110 105,110" fill="#FF69B4"/>
  
  <!-- Cat mouth -->
  <path d="M 95 110 Q 100 115 105 110" fill="none" stroke="#333" stroke-width="2"/>
  
  <!-- Cat whiskers -->
  <line x1="70" y1="105" x2="40" y2="100" stroke="#333" stroke-width="2"/>
  <line x1="70" y1="110" x2="40" y2="110" stroke="#333" stroke-width="2"/>
  <line x1="70" y1="115" x2="40" y2="120" stroke="#333" stroke-width="2"/>
  
  <line x1="130" y1="105" x2="160" y2="100" stroke="#333" stroke-width="2"/>
  <line x1="130" y1="110" x2="160" y2="110" stroke="#333" stroke-width="2"/>
  <line x1="130" y1="115" x2="160" y2="120" stroke="#333" stroke-width="2"/>
</svg> 